<svg xmlns="http://www.w3.org/2000/svg" width="404" height="251" fill="none" viewBox="0 0 404 251"><path fill="#F0894F" d="M0 0h404v251H0z"/><path fill="#572900" fill-rule="evenodd" d="M240.14 126a13.38 13.38 0 0 0 4.027-9.583c0-7.41-6.007-13.417-13.417-13.417-2.058 0-4.007.463-5.75 1.291v-7.04c0-7.41-6.007-13.418-13.417-13.418A13.38 13.38 0 0 0 202 87.862a13.38 13.38 0 0 0-9.583-4.028c-7.41 0-13.417 6.007-13.417 13.417 0 2.058.463 4.007 1.291 5.75h-7.041c-7.41 0-13.417 6.007-13.417 13.417 0 3.754 1.542 7.148 4.027 9.583a13.38 13.38 0 0 0-4.027 9.583c0 7.41 6.007 13.417 13.417 13.417 2.058 0 4.007-.463 5.75-1.291v7.041c0 7.41 6.007 13.417 13.417 13.417 3.754 0 7.148-1.542 9.583-4.027a13.38 13.38 0 0 0 9.583 4.027c7.41 0 13.417-6.007 13.417-13.417 0-2.058-.463-4.007-1.291-5.75h7.041c7.41 0 13.417-6.007 13.417-13.417 0-3.753-1.542-7.148-4.027-9.583Zm-47.723-34.5a5.75 5.75 0 0 1 5.75 5.75V103h-5.75a5.75 5.75 0 1 1 0-11.5m13.416 5.75a5.75 5.75 0 0 1 11.5 0v24.917h-11.5zm-7.666 24.917v-11.5H173.25a5.75 5.75 0 0 0 0 11.5zm26.833 0h5.75a5.75 5.75 0 1 0-5.75-5.75zm5.75 7.666h-24.917v11.5h24.917a5.75 5.75 0 1 0 0-11.5M211.583 149h-5.75v5.75a5.75 5.75 0 1 0 5.75-5.75m-13.416-19.167h-11.5v24.917a5.75 5.75 0 1 0 11.5 0zm-24.917 0H179v5.75a5.75 5.75 0 1 1-5.75-5.75" clip-rule="evenodd"/></svg>