<svg xmlns="http://www.w3.org/2000/svg" width="404" height="251" fill="none" viewBox="0 0 404 251"><path fill="#65E4EA" d="M0 0h404v251H0z"/><path stroke="#013234" stroke-width="8" d="M237.733 144.667c0 6.259-5.075 11.333-11.334 11.333s-11.333-5.074-11.333-11.333 5.074-11.334 11.333-11.334 11.334 5.075 11.334 11.334ZM188.667 95.6c0 6.259-5.074 11.333-11.334 11.333S166 101.859 166 95.6s5.074-11.333 11.333-11.333 11.334 5.074 11.334 11.333Zm49.066-12.267c0 6.26-5.075 11.334-11.334 11.334s-11.333-5.074-11.333-11.334S220.14 72 226.399 72s11.334 5.074 11.334 11.333Z"/><path stroke="#013234" stroke-width="8" d="M180.398 104.8c0 25.179 20.7 36.8 36.8 36.8m10.137-49.067v42.934"/></svg>