<svg xmlns="http://www.w3.org/2000/svg" width="339" height="30" fill="none" viewBox="0 0 15 15"><path fill="#000" d="M7.5 0C3.356 0 0 3.441 0 7.69c0 3.402 2.147 6.276 5.128 7.295.375.068.516-.163.516-.365 0-.183-.01-.788-.01-1.432-1.884.355-2.371-.471-2.522-.904-.084-.22-.45-.903-.768-1.086-.263-.144-.638-.5-.01-.51.591-.009 1.013.558 1.153.789.675 1.163 1.754.836 2.185.634.066-.5.262-.836.478-1.028-1.669-.193-3.413-.856-3.413-3.797 0-.836.291-1.528.77-2.067-.076-.192-.338-.98.074-2.037 0 0 .628-.202 2.063.788.6-.173 1.237-.26 1.875-.26s1.275.087 1.875.26c1.434-1 2.062-.788 2.062-.788.413 1.057.15 1.845.075 2.037.478.539.769 1.221.769 2.067 0 2.95-1.753 3.605-3.422 3.797.272.24.506.701.506 1.422 0 1.029-.009 1.855-.009 2.115 0 .202.14.442.516.365C12.853 13.966 15 11.083 15 7.69 15 3.44 11.644 0 7.5 0"/></svg>