<svg xmlns="http://www.w3.org/2000/svg" width="1990" height="480" fill="none" viewBox="0 0 1990 480"><path fill="url(#a)" d="M.5.5h1989v479H.5z"/><path stroke="#000" d="M.5.5h1989v479H.5z"/><path stroke="#000" stroke-opacity=".2" d="M.5.5h1989v479H.5z"/><circle cx="128" cy="112" r="86" stroke="#65E4EA" stroke-width="8"/><path stroke="#65E4EA" stroke-linecap="round" stroke-linejoin="round" stroke-width="8" d="m165.174 82.652-54.452 54.783-23.809-27.229"/><path fill="#65E4EA" d="M325.091 168.705q-13.409 0-23.068-5.682-9.603-5.739-14.773-15.909-5.114-10.172-5.114-23.409 0-13.41 5.171-23.523 5.227-10.17 14.829-15.853 9.603-5.738 22.841-5.738 11.421 0 20 4.148t13.58 11.647T364.068 112h-22.841q-.966-6.534-5.113-10.511-4.091-4.035-10.739-4.035-5.625 0-9.83 3.069-4.147 3.01-6.477 8.807-2.33 5.794-2.329 14.034 0 8.352 2.272 14.204 2.33 5.852 6.534 8.921 4.205 3.068 9.83 3.068 4.147 0 7.443-1.705 3.352-1.704 5.512-4.943 2.216-3.295 2.897-7.898h22.841q-.569 10-5.454 17.614-4.83 7.557-13.353 11.818-8.522 4.262-20.17 4.262m78.679-52.16V167h-24.205V50.636h23.523v44.489h1.023q2.954-7.727 9.545-12.102 6.591-4.432 16.534-4.432 9.091 0 15.853 3.977 6.818 3.921 10.568 11.307 3.807 7.33 3.75 17.557V167h-24.205v-51.25q.057-8.068-4.091-12.557-4.09-4.489-11.477-4.489-4.943 0-8.75 2.103-3.75 2.102-5.909 6.136-2.102 3.978-2.159 9.602m115.412 52.16q-13.466 0-23.182-5.455-9.66-5.512-14.886-15.568-5.228-10.114-5.228-23.921 0-13.466 5.228-23.636 5.226-10.17 14.716-15.852 9.545-5.682 22.386-5.682 8.636 0 16.079 2.784 7.5 2.727 13.069 8.239 5.625 5.511 8.75 13.863 3.125 8.296 3.125 19.432v6.648h-73.694v-15h50.91q0-5.227-2.273-9.262a16.3 16.3 0 0 0-6.307-6.306q-3.978-2.33-9.261-2.33-5.512 0-9.773 2.557a17.93 17.93 0 0 0-6.591 6.761q-2.386 4.204-2.443 9.375v14.262q0 6.477 2.386 11.193 2.444 4.716 6.875 7.273 4.432 2.556 10.512 2.556 4.034 0 7.386-1.136 3.352-1.137 5.739-3.409t3.636-5.568L558.727 142q-1.704 8.068-6.988 14.091-5.228 5.966-13.523 9.318-8.239 3.296-19.034 3.296m95.284 0q-13.409 0-23.068-5.682-9.603-5.739-14.773-15.909-5.114-10.172-5.114-23.409 0-13.41 5.171-23.523 5.227-10.17 14.829-15.853 9.603-5.738 22.841-5.738 11.421 0 20 4.148t13.58 11.647q5 7.5 5.511 17.614h-22.841q-.966-6.534-5.113-10.511-4.091-4.035-10.739-4.035-5.625 0-9.83 3.069-4.148 3.01-6.477 8.807-2.33 5.794-2.329 14.034 0 8.352 2.272 14.204 2.33 5.852 6.534 8.921 4.205 3.068 9.83 3.068 4.148 0 7.443-1.705 3.352-1.704 5.512-4.943 2.216-3.295 2.897-7.898h22.841q-.569 10-5.454 17.614-4.83 7.557-13.353 11.818-8.522 4.262-20.17 4.262m76.406-26.819.057-29.034h3.523l27.954-33.125h27.784l-37.556 43.864h-5.739zM668.94 167V50.636h24.205V167zm54.546 0-25.682-38.011 16.136-17.103L751.838 167z"/><defs><linearGradient id="a" x1="995" x2="995" y1="-106.873" y2="381.274" gradientUnits="userSpaceOnUse"><stop stop-color="#65DDEA" stop-opacity=".4"/><stop offset="1" stop-color="#65DDEA" stop-opacity="0"/></linearGradient></defs></svg>